<svg id="Layer_1" data-name="Layer 1" xmlns="http://www.w3.org/2000/svg" viewBox="0 0 965.4 113.3"><defs><style>.cls-1{opacity:0.5;}.cls-2{fill:#e4e4e4;}.cls-3{fill:#6787ab;}.cls-4{fill:#d92c64;}.cls-5{fill:#fff;}</style></defs><title>logo</title><g class="cls-1"><rect class="cls-2" x="0.2" y="21.6" width="18.7" height="67.13"/></g><rect class="cls-2" y="20.3" width="64.2" height="16.56" rx="0.5" ry="0.5"/><rect class="cls-3" y="46.9" width="64.2" height="16.56" rx="0.5" ry="0.5"/><rect class="cls-4" y="73.5" width="64.2" height="16.56" rx="0.5" ry="0.5"/><path class="cls-5" d="M119.6,102.1c-9.9,0-17.7-2.8-23.3-8.3s-8.4-13.2-8.4-23.3,2.6-18.4,7.8-24S108,38,117.1,38s15.6,2.5,20.4,7.5,7.3,11.8,7.3,20.6v8.2H105c.2,4.8,1.6,8.5,4.2,11.2s6.4,4,11.2,4A53.7,53.7,0,0,0,131,88.4a53.6,53.6,0,0,0,10.4-3.7v13a39.6,39.6,0,0,1-9.5,3.3A56.9,56.9,0,0,1,119.6,102.1ZM117.3,50c-3.6,0-6.4,1.1-8.4,3.4s-3.2,5.5-3.5,9.6H129c0-4.1-1.1-7.3-3.2-9.6A10.9,10.9,0,0,0,117.3,50Z" transform="translate(-0.5 -14.9)"/><path class="cls-5" d="M167.6,101,144,39.2h17.7l11.9,35.2A59.8,59.8,0,0,1,176.1,87h.3a59.8,59.8,0,0,1,2.5-12.6l11.9-35.2h17.6L184.9,101Z" transform="translate(-0.5 -14.9)"/><path class="cls-5" d="M239.6,102.1c-9.9,0-17.7-2.8-23.3-8.3s-8.4-13.2-8.4-23.3,2.6-18.4,7.7-24S228,38,237.1,38s15.5,2.5,20.4,7.5,7.3,11.8,7.3,20.6v8.2H225c.1,4.8,1.6,8.5,4.2,11.2s6.4,4,11.2,4a45.6,45.6,0,0,0,20.9-4.8v13a38.9,38.9,0,0,1-9.4,3.3A63.9,63.9,0,0,1,239.6,102.1ZM237.2,50c-3.6,0-6.4,1.1-8.4,3.4s-3.2,5.5-3.5,9.6H249q-.1-6.2-3.3-9.6A10.9,10.9,0,0,0,237.2,50Z" transform="translate(-0.5 -14.9)"/><path class="cls-5" d="M329.9,101H313V64.9c0-4.5-.7-7.8-2.3-10.1s-4.1-3.3-7.6-3.3-8.1,1.6-10.2,4.7-3.2,8.4-3.2,15.7V101H272.9V39.2h12.8l2.3,7.9h.9a17.7,17.7,0,0,1,7.8-6.8A26,26,0,0,1,308,38c7.1,0,12.6,1.9,16.3,5.8s5.6,9.5,5.6,16.9Z" transform="translate(-0.5 -14.9)"/><path class="cls-5" d="M410.3,102.1c-8.6,0-15.3-2.7-20.2-8.2s-7.3-12.9-7.3-22.6,2.5-17.7,7.6-23.3,11.9-8.3,20.7-8.3A42.2,42.2,0,0,1,426,42.4l-1.4,4.9A45.5,45.5,0,0,0,411,44.7c-7.4,0-12.9,2.3-16.7,6.8s-5.7,11.1-5.7,19.7,1.9,14.4,5.7,19,9.1,6.9,15.9,6.9a41.5,41.5,0,0,0,15.2-2.9v5C421.5,101.1,416.5,102.1,410.3,102.1Z" transform="translate(-0.5 -14.9)"/><path class="cls-5" d="M470.9,101l-1.4-9.5h-.4a28.1,28.1,0,0,1-9.3,8.2,24.5,24.5,0,0,1-11.3,2.4c-5.9,0-10.5-1.5-13.8-4.6s-4.9-7.2-4.9-12.5a15.5,15.5,0,0,1,7.3-13.7c4.9-3.2,12-4.9,21.2-5.1l11.4-.3v-4c0-5.7-1.1-10-3.4-13s-6.1-4.3-11.3-4.3a37.2,37.2,0,0,0-17.3,4.6l-2-4.7a46,46,0,0,1,19.6-4.7c6.6,0,11.5,1.7,14.8,5.2s4.8,8.7,4.8,16v40Zm-22.1-3.9c6.4,0,11.5-1.8,15.2-5.5s5.5-8.8,5.5-15.3V70.4l-10.5.4c-8.4.4-14.4,1.8-18,4s-5.4,5.7-5.4,10.4,1.1,6.7,3.4,8.8S444.6,97.1,448.8,97.1Z" transform="translate(-0.5 -14.9)"/><path class="cls-5" d="M494.2,101h-5.5V14.9h5.5Z" transform="translate(-0.5 -14.9)"/><path class="cls-5" d="M532.9,102.1q-13,0-20.4-8.1c-4.9-5.4-7.3-12.9-7.3-22.6s2.3-17.3,7.1-23a23.6,23.6,0,0,1,19-8.7c8,0,12.7,2.5,16.8,7.4s6.1,11.7,6.1,20.1v4.5H510.9c.1,8.2,2,14.5,5.8,18.9s9.2,6.5,16.2,6.5a46.5,46.5,0,0,0,9.1-.7,55.8,55.8,0,0,0,9.8-3.1v5a51.4,51.4,0,0,1-9.4,3A59.9,59.9,0,0,1,532.9,102.1Zm-1.6-57.5c-5.7,0-10.4,1.9-13.9,5.7s-5.5,9.3-6.1,16.5h37.1c0-7-1.5-12.4-4.5-16.3S536.7,44.6,531.3,44.6Z" transform="translate(-0.5 -14.9)"/><path class="cls-5" d="M607,101V62c0-6.1-1.2-10.4-3.8-13.2s-6.5-4.1-11.8-4.1c-7.2,0-12.4,1.8-15.8,5.4s-5,9.6-5,17.7V101h-5.5V40.9h4.7l1,8.2h.4c3.9-6.3,10.8-9.4,20.8-9.4,13.6,0,20.5,7.3,20.5,22V101Z" transform="translate(-0.5 -14.9)"/><path class="cls-5" d="M648.3,39.7a24.1,24.1,0,0,1,11.2,2.4c3.2,1.6,6,4.3,8.6,8.1h.3c-.2-4.6-.3-9.2-.3-13.6V14.9h5.4V101h-3.6l-1.4-9.2h-.4c-4.6,6.8-11.2,10.3-19.7,10.3s-14.7-2.6-19-7.8-6.6-12.6-6.6-22.5,2.2-18.4,6.5-23.9S640,39.7,648.3,39.7Zm0,5c-6.6,0-11.5,2.3-14.8,6.9s-5,11.3-5,20.1c0,17,6.6,25.5,19.9,25.5,6.8,0,11.7-2,14.9-5.9s4.8-10.5,4.8-19.5v-1c0-9.3-1.6-15.9-4.7-20S655.2,44.7,648.3,44.7Z" transform="translate(-0.5 -14.9)"/><path class="cls-5" d="M724.5,101l-1.4-9.5h-.5a28.1,28.1,0,0,1-9.3,8.2,24.5,24.5,0,0,1-11.3,2.4c-5.9,0-10.5-1.5-13.7-4.6a16.6,16.6,0,0,1-5-12.5,15.5,15.5,0,0,1,7.4-13.7c4.8-3.2,11.9-4.9,21.2-5.1l11.4-.3v-4c0-5.7-1.2-10-3.5-13s-6-4.3-11.2-4.3a37.2,37.2,0,0,0-17.3,4.6l-2-4.7a45.5,45.5,0,0,1,19.5-4.7c6.6,0,11.6,1.7,14.8,5.2s4.9,8.7,4.9,16v40Zm-22.1-3.9c6.4,0,11.4-1.8,15.1-5.5s5.6-8.8,5.6-15.3V70.4l-10.5.4c-8.5.4-14.5,1.8-18.1,4s-5.4,5.7-5.4,10.4,1.2,6.7,3.5,8.8,5.6,3.1,9.8,3.1Z" transform="translate(-0.5 -14.9)"/><path class="cls-5" d="M766,39.7a44.5,44.5,0,0,1,8.1.8l-1,5.2a34.6,34.6,0,0,0-7.8-.9c-5.1,0-9.3,2.2-12.6,6.5s-4.9,9.9-4.9,16.5V101h-5.5V40.9h4.6l.6,10.8h.4c2.5-4.4,5.1-7.5,7.9-9.3A18.4,18.4,0,0,1,766,39.7Z" transform="translate(-0.5 -14.9)"/><path class="cls-5" d="M818.7,101l-3.2-8.4H815a25.9,25.9,0,0,1-8.7,7.4c-3,1.4-7,2.1-11.8,2.1s-10.6-1.7-14-5.1-5.1-8.2-5.1-14.5,2.3-11.4,6.9-14.5,11.5-4.8,20.7-5.2l10.8-.3V59.8c0-6.3-3.3-9.4-9.7-9.4q-7.4,0-17.4,4.5l-5.6-11.4a50.1,50.1,0,0,1,23.7-5.6c8.3,0,14.6,1.8,19.1,5.4s6.6,9.1,6.6,16.5V101Zm-4.9-28.7-6.6.2c-4.9.2-8.5,1.1-10.9,2.7s-3.6,4.1-3.6,7.4c0,4.8,2.7,7.1,8.2,7.1q5.9,0,9.3-3.3a12.1,12.1,0,0,0,3.6-9Z" transform="translate(-0.5 -14.9)"/><path class="cls-5" d="M876.1,102.1c-7.2,0-12.9-2.7-17-7.9h-.9c.6,5.1.9,8.1.9,8.9v25.1H842.2v-89h13.7l2.4,8h.8c3.9-6.1,9.7-9.2,17.5-9.2s13,2.8,17.1,8.5,6.2,13.4,6.2,23.5A47.7,47.7,0,0,1,897,87.1a23.8,23.8,0,0,1-8.3,11.2A21,21,0,0,1,876.1,102.1Zm-4.9-50.6c-4.2,0-7.2,1.3-9.2,3.8s-2.9,6.8-2.9,12.7v1.8c0,6.7.9,11.4,2.9,14.3s5.1,4.3,9.4,4.3c7.5,0,11.3-6.2,11.3-18.7,0-6.1-.9-10.6-2.8-13.7s-4.8-4.5-8.7-4.5Z" transform="translate(-0.5 -14.9)"/><path class="cls-5" d="M942.1,102.1c-7.2,0-12.9-2.7-17.1-7.9h-.8c.5,5.1.8,8.1.8,8.9v25.1H908.2v-89h13.7l2.4,8h.7c4-6.1,9.8-9.2,17.6-9.2s13,2.8,17.1,8.5,6.2,13.4,6.2,23.5A47.7,47.7,0,0,1,963,87.1a23.8,23.8,0,0,1-8.3,11.2A21.7,21.7,0,0,1,942.1,102.1Zm-5-50.6c-4.1,0-7.2,1.3-9.1,3.8s-2.9,6.8-3,12.7v1.8c0,6.7,1,11.4,3,14.3s5.1,4.3,9.4,4.3c7.5,0,11.3-6.2,11.3-18.7,0-6.1-.9-10.6-2.8-13.7S941.1,51.5,937.1,51.5Z" transform="translate(-0.5 -14.9)"/><path class="cls-5" d="M362.3,86.9c-1.3-1.1-2-2.9-2-5.3V69.7H343.4V81.6c0,6.8,1.6,11.9,4.6,15.4s8,5.1,14.8,5.1a37,37,0,0,0,15.4-2.9V86.7a34.8,34.8,0,0,1-10.6,1.9A7.8,7.8,0,0,1,362.3,86.9Z" transform="translate(-0.5 -14.9)"/><rect class="cls-5" x="342.9" y="0.5" width="17.4" height="47.57"/><polygon class="cls-5" points="327.8 17 375.4 17 375.4 29.2 335.3 29.2 327.8 17"/></svg>