<?xml version="1.0" standalone="no"?>
<!DOCTYPE svg PUBLIC "-//W3C//DTD SVG 20010904//EN"
 "http://www.w3.org/TR/2001/REC-SVG-20010904/DTD/svg10.dtd">
<svg version="1.0" xmlns="http://www.w3.org/2000/svg"
 width="500.000000pt" height="500.000000pt" viewBox="0 0 500.000000 500.000000"
 preserveAspectRatio="xMidYMid meet">
<metadata>
Created by potrace 1.11, written by Peter Selinger 2001-2013
</metadata>
<g transform="translate(0.000000,500.000000) scale(0.100000,-0.100000)"
fill="#000000" stroke="none">
<path d="M2400 3474 c-195 -30 -336 -94 -459 -208 -51 -48 -126 -157 -164
-237 -61 -131 -94 -308 -91 -489 2 -128 15 -240 35 -306 5 -17 11 -40 13 -51
3 -11 17 -51 32 -89 92 -231 270 -376 529 -430 50 -10 306 -13 365 -4 132 20
226 43 279 68 l36 17 2 158 c1 86 -1 157 -6 157 -4 0 -33 -9 -64 -19 -85 -30
-237 -60 -331 -67 -258 -20 -427 103 -475 346 -24 120 -27 148 -25 235 5 286
78 458 232 548 76 45 124 55 234 52 98 -2 183 -25 315 -85 74 -34 60 -49 132
137 46 118 57 153 49 153 -2 0 -37 14 -78 31 -138 56 -251 80 -400 83 -74 2
-146 2 -160 0z"/>
<path d="M3751 3438 c-5 -13 -16 -43 -24 -68 -9 -25 -43 -124 -77 -220 -34
-96 -66 -188 -71 -205 -5 -16 -13 -39 -18 -50 -5 -11 -16 -40 -24 -65 -9 -25
-73 -207 -142 -405 -70 -198 -155 -441 -190 -540 -35 -99 -66 -188 -70 -197
-7 -17 7 -18 197 -18 l205 0 26 83 c14 45 43 138 65 207 l39 125 325 3 325 2
31 -97 c77 -251 92 -301 92 -311 0 -9 56 -12 205 -12 113 0 205 4 205 8 0 4
-20 64 -44 133 -285 806 -444 1255 -517 1462 -32 93 -61 173 -64 178 -4 5
-104 9 -236 9 -229 0 -230 0 -238 -22z m278 -383 c11 -38 40 -135 65 -215 25
-80 65 -209 89 -287 l44 -143 -232 0 -233 0 20 63 c52 164 157 512 163 537 1
8 13 49 26 90 19 64 23 71 30 50 4 -14 16 -56 28 -95z"/>
<path d="M365 2560 l0 -890 512 0 c506 0 513 0 514 20 0 11 0 65 0 120 0 55 0
118 0 140 l-1 40 -323 0 -324 0 0 225 1 225 265 -1 c146 0 283 0 303 1 l37 0
0 155 0 155 -303 0 -303 0 1 193 1 192 323 3 c247 2 322 5 323 15 0 6 1 76 2
155 l2 142 -515 0 -515 0 0 -890z"/>
</g>
</svg>
